{"title":"The Hangover III 2013 BRRip 720p x264 AAC - PRiSTiNE [P2PDL]","uid":8973129,"size":633325323,"categoryP":"video","categoryS":"hd___movies","magnet":"?xt=urn:btih:cbe961525160951c6e3c48eaf67651de4017a8b2&amp;dn=The+Hangover+III+2013+BRRip+720p+x264+AAC+-+PRiSTiNE+%5BP2PDL%5D&amp;tr=udp%3A%2F%2Ftracker.openbittorrent.com%3A80&amp;tr=udp%3A%2F%2Fopen.demonii.com%3A1337&amp;tr=udp%3A%2F%2Ftracker.coppersurfer.tk%3A6969&amp;tr=udp%3A%2F%2Fexodus.desync.com%3A6969","seeders":4,"leechers":1,"uploader":"ValidusVyto","files":-1,"time":1380373595,"description":"_______ Visit us at our Semi Public Bittorrent Community ________\n  &lt;a href=&quot;\nhttp://p2pdl.com&quot; rel=&quot;nofollow&quot; target=&quot;_NEW&quot;&gt;\nhttp://p2pdl.com&lt;/a&gt;  _____________________________ &lt;a href=&quot; http://p2pdl.com&quot; rel=&quot;nofollow&quot; target=&quot;_NEW&quot;&gt; http://p2pdl.com&lt;/a&gt;\n\n\n\nThe Hangover III 2013 BRRip 720p x264 AAC - PRiSTiNE\n\n\nGenre: Comedy\nPlot: When one of their own is kidnapped by an angry gangster,the Wolf Pack must track\ndown Mr. Chow, who has escaped from prison and is on the lam.\nDirector: Todd Phillips\nStars: Bradley Cooper, Zach Galifianakis, Ed Helms.\nRated: N/A\n\n\nIMDb: &lt;a href=&quot;\nhttp://www.imdb.com/title/tt1951261/&quot; rel=&quot;nofollow&quot; target=&quot;_NEW&quot;&gt;\nhttp://www.imdb.com/title/tt1951261/&lt;/a&gt;\n\n\nFormat                         : MPEG-4\nFile size                      : 596 MiB\nDuration                       : 1h 40mn\nOverall bit rate               : 832 Kbps\n\nVideo\nFormat                         : AVC\nBit rate                       : 749 Kbps\nWidth                          : 1 280 pixels\nHeight                         : 536 pixels\nDisplay aspect ratio           : 2.40:1\nFrame rate mode                : Constant\nFrame rate                     : 23.976 fps\nBit depth                      : 10 bits\nStream size                    : 536 MiB (90%)\nWriting library                : x264 core 138 r2358\n\nAudio\nFormat                         : AAC\nBit rate mode                  : Variable\nBit rate                       : 80.0 Kbps\nChannel(s)                     : 2 channels\nChannel positions              : Front: L R\nSampling rate                  : 48.0 KHz\nStream size                    : 57.3 MiB (10%)\nLanguage                       : English\n\nSubtitle                       : Yes (English)\n\nSource                         : 720p.BluRay.x264-SPARKS\n &lt;a href=&quot;\nhttp://someimage.com/84rQXXZ&quot; rel=&quot;nofollow&quot; target=&quot;_NEW&quot;&gt;\nhttp://someimage.com/84rQXXZ&lt;/a&gt; &lt;a href=&quot;\nhttp://someimage.com/UrB8baD&quot; rel=&quot;nofollow&quot; target=&quot;_NEW&quot;&gt;\nhttp://someimage.com/UrB8baD&lt;/a&gt; &lt;a href=&quot;\nhttp://someimage.com/J3aojwy&quot; rel=&quot;nofollow&quot; target=&quot;_NEW&quot;&gt;\nhttp://someimage.com/J3aojwy&lt;/a&gt; &lt;a href=&quot;\nhttp://someimage.com/shytgr2&quot; rel=&quot;nofollow&quot; target=&quot;_NEW&quot;&gt;\nhttp://someimage.com/shytgr2&lt;/a&gt; &lt;a href=&quot;\nhttp://someimage.com/Mi5Kdmr&quot; rel=&quot;nofollow&quot; target=&quot;_NEW&quot;&gt;\nhttp://someimage.com/Mi5Kdmr&lt;/a&gt; &lt;a href=&quot;\nhttp://someimage.com/0ahLsIK&quot; rel=&quot;nofollow&quot; target=&quot;_NEW&quot;&gt;\nhttp://someimage.com/0ahLsIK&lt;/a&gt; &lt;a href=&quot;\nhttp://someimage.com/tJd2Ceg&quot; rel=&quot;nofollow&quot; target=&quot;_NEW&quot;&gt;\nhttp://someimage.com/tJd2Ceg&lt;/a&gt; &lt;a href=&quot;\nhttp://someimage.com/LAE4I3n&quot; rel=&quot;nofollow&quot; target=&quot;_NEW&quot;&gt;\nhttp://someimage.com/LAE4I3n&lt;/a&gt;\n\n----------------------------------------------------------------------------------------------------\n\n\nEncoded using revolutionary 10bit encoding, which enables us to provide you more crispier \nand sharper images at small sizes, just make sure you follow our instructions without a fault.\nRecommend to you to use latest version of VLC player. Install K-Lite Codec Pack or shark007 codecs\nin case of any kind of problem in playback (For non-VLC Media Player users). Alternatively, install\nCore AVC codecs, the fastest decoder that there is coupled with Community Center Codec Pack and play\non Windows Media Player Classic. Check sample to be sure.\nEnjoy!\n\nEncoder Notes:Looking For Early Access To Anything You Can Provide DVDScr, R5, DVDR, BluRay, Direct\nAudio, Music Releases and Seedboxes. We require dedicated servers, so as to do more \nand fast releases of movies.\nIf You Got anything to offer please contact us at &quot;&lt;a class=&quot;__cf_email__&quot; href=&quot;/cdn-cgi/l/email-protection&quot; data-cfemail=&quot;ed9d9f8aad85989e85c38e8280&quot;&gt;[email&amp;#160;protected]&lt;/a&gt;&lt;script cf-hash='f9e31' type=&quot;text/javascript&quot;&gt;\n/* &lt;![CDATA[ */!function(){try{var t=&quot;currentScript&quot;in document?document.currentScript:function(){for(var t=document.getElementsByTagName(&quot;script&quot;),e=t.length;e--;)if(t[e].getAttribute(&quot;cf-hash&quot;))return t[e]}();if(t&amp;&amp;t.previousSibling){var e,r,n,i,c=t.previousSibling,a=c.getAttribute(&quot;data-cfemail&quot;);if(a){for(e=&quot;&quot;,r=parseInt(a.substr(0,2),16),n=2;a.length-n;n+=2)i=parseInt(a.substr(n,2),16)^r,e+=String.fromCharCode(i);e=document.createTextNode(e),c.parentNode.replaceChild(e,c)}}}catch(u){}}();/* ]]&gt; */&lt;/script&gt;&quot;.\n\nFacebook Fan Page:  \nSearch P2PDL on FB and hit like!!!\n\nFor more of our team uploads visit @                                                 &lt;a href=&quot;\nhttp://thepiratebay.se/user/vitamin_x&quot; rel=&quot;nofollow&quot; target=&quot;_NEW&quot;&gt;\nhttp://thepiratebay.se/user/vitamin_x&lt;/a&gt;\t","torrent":{"xt":"urn:btih:cbe961525160951c6e3c48eaf67651de4017a8b2","amp;dn":"The+Hangover+III+2013+BRRip+720p+x264+AAC+-+PRiSTiNE+%5BP2PDL%5D","amp;tr":["udp%3A%2F%2Ftracker.openbittorrent.com%3A80","udp%3A%2F%2Fopen.demonii.com%3A1337","udp%3A%2F%2Ftracker.coppersurfer.tk%3A6969","udp%3A%2F%2Fexodus.desync.com%3A6969"],"infoHash":"cbe961525160951c6e3c48eaf67651de4017a8b2","infoHashBuffer":{"type":"Buffer","data":[203,233,97,82,81,96,149,28,110,60,72,234,246,118,81,222,64,23,168,178]},"announce":[],"urlList":[]}}